<svg width="287" height="60" viewBox="0 0 287 60" fill="none" xmlns="http://www.w3.org/2000/svg">
<rect width="287" height="60" rx="30" fill="#E63239"/>
<path d="M84.4362 27.248C84.4362 28.016 84.1749 28.6347 83.6522 29.104C83.1295 29.5627 82.4469 29.856 81.6042 29.984V30.032C82.6175 30.1493 83.3909 30.4427 83.9242 30.912C84.4682 31.3813 84.7402 31.9947 84.7402 32.752C84.7402 33.424 84.5642 34.016 84.2122 34.528C83.8602 35.04 83.3322 35.44 82.6282 35.728C81.9242 36.016 81.0495 36.16 80.0042 36.16C79.2362 36.16 78.5375 36.1067 77.9082 36C77.2789 35.904 76.7242 35.7493 76.2442 35.536V33.776C76.5749 33.936 76.9375 34.0747 77.3322 34.192C77.7375 34.2987 78.1429 34.384 78.5482 34.448C78.9642 34.5013 79.3535 34.528 79.7162 34.528C80.7295 34.528 81.4762 34.368 81.9562 34.048C82.4362 33.7173 82.6762 33.2533 82.6762 32.656C82.6762 32.0373 82.3509 31.5893 81.7002 31.312C81.0602 31.024 80.1855 30.88 79.0762 30.88H77.7962V29.264H78.9642C79.8175 29.264 80.4949 29.1947 80.9962 29.056C81.4975 28.9173 81.8549 28.72 82.0682 28.464C82.2922 28.1973 82.4042 27.888 82.4042 27.536C82.4042 27.0773 82.2175 26.72 81.8442 26.464C81.4709 26.1973 80.9375 26.064 80.2442 26.064C79.6042 26.064 79.0335 26.1547 78.5322 26.336C78.0309 26.5067 77.5562 26.7307 77.1082 27.008L76.1962 25.632C76.5589 25.3973 76.9482 25.1893 77.3642 25.008C77.7909 24.816 78.2602 24.672 78.7722 24.576C79.2842 24.4693 79.8442 24.416 80.4522 24.416C81.3055 24.416 82.0255 24.5387 82.6122 24.784C83.2095 25.0293 83.6629 25.3653 83.9722 25.792C84.2815 26.208 84.4362 26.6933 84.4362 27.248ZM90.2442 27.168C91.3642 27.168 92.2122 27.4133 92.7882 27.904C93.3749 28.384 93.6682 29.1413 93.6682 30.176V36H92.2442L91.8442 34.8H91.7802C91.5349 35.1093 91.2789 35.3707 91.0122 35.584C90.7562 35.7867 90.4575 35.9307 90.1162 36.016C89.7855 36.112 89.3802 36.16 88.9002 36.16C88.3882 36.16 87.9242 36.064 87.5082 35.872C87.1029 35.68 86.7829 35.3867 86.5482 34.992C86.3135 34.5867 86.1962 34.08 86.1962 33.472C86.1962 32.576 86.5215 31.904 87.1722 31.456C87.8335 30.9973 88.8309 30.7467 90.1642 30.704L91.6682 30.656V30.224C91.6682 29.6693 91.5349 29.2747 91.2682 29.04C91.0015 28.8053 90.6282 28.688 90.1482 28.688C89.7109 28.688 89.2895 28.752 88.8842 28.88C88.4789 29.008 88.0842 29.1573 87.7002 29.328L87.0602 27.92C87.4869 27.696 87.9722 27.5147 88.5162 27.376C89.0709 27.2373 89.6469 27.168 90.2442 27.168ZM90.6122 31.936C89.7269 31.968 89.1135 32.1227 88.7722 32.4C88.4309 32.6667 88.2602 33.0293 88.2602 33.488C88.2602 33.8933 88.3829 34.1867 88.6282 34.368C88.8735 34.5493 89.1882 34.64 89.5722 34.64C90.1589 34.64 90.6549 34.4747 91.0602 34.144C91.4655 33.8027 91.6682 33.3013 91.6682 32.64V31.904L90.6122 31.936ZM101.666 27.328H103.89L100.354 31.488L104.194 36H101.89L98.2104 31.6V36H96.1944V27.328H98.2104V31.536L101.666 27.328ZM109.01 27.168C110.13 27.168 110.978 27.4133 111.554 27.904C112.14 28.384 112.434 29.1413 112.434 30.176V36H111.01L110.61 34.8H110.546C110.3 35.1093 110.044 35.3707 109.778 35.584C109.522 35.7867 109.223 35.9307 108.882 36.016C108.551 36.112 108.146 36.16 107.666 36.16C107.154 36.16 106.69 36.064 106.274 35.872C105.868 35.68 105.548 35.3867 105.314 34.992C105.079 34.5867 104.962 34.08 104.962 33.472C104.962 32.576 105.287 31.904 105.938 31.456C106.599 30.9973 107.596 30.7467 108.93 30.704L110.434 30.656V30.224C110.434 29.6693 110.3 29.2747 110.034 29.04C109.767 28.8053 109.394 28.688 108.914 28.688C108.476 28.688 108.055 28.752 107.65 28.88C107.244 29.008 106.85 29.1573 106.466 29.328L105.826 27.92C106.252 27.696 106.738 27.5147 107.282 27.376C107.836 27.2373 108.412 27.168 109.01 27.168ZM109.378 31.936C108.492 31.968 107.879 32.1227 107.538 32.4C107.196 32.6667 107.026 33.0293 107.026 33.488C107.026 33.8933 107.148 34.1867 107.394 34.368C107.639 34.5493 107.954 34.64 108.338 34.64C108.924 34.64 109.42 34.4747 109.826 34.144C110.231 33.8027 110.434 33.3013 110.434 32.64V31.904L109.378 31.936ZM117.792 27.168C118.432 27.168 119.013 27.2533 119.536 27.424C120.059 27.5947 120.475 27.8507 120.784 28.192C121.093 28.5227 121.248 28.944 121.248 29.456C121.248 29.9787 121.093 30.3947 120.784 30.704C120.485 31.0133 120.075 31.2373 119.552 31.376V31.456C119.915 31.5413 120.24 31.664 120.528 31.824C120.827 31.984 121.061 32.1973 121.232 32.464C121.413 32.7307 121.504 33.0827 121.504 33.52C121.504 34 121.36 34.4427 121.072 34.848C120.784 35.2427 120.341 35.5627 119.744 35.808C119.147 36.0427 118.379 36.16 117.44 36.16C116.992 36.16 116.571 36.1387 116.176 36.096C115.781 36.0533 115.419 35.9947 115.088 35.92C114.768 35.8347 114.485 35.7333 114.24 35.616V33.904C114.603 34.0747 115.04 34.2293 115.552 34.368C116.075 34.5067 116.629 34.576 117.216 34.576C117.653 34.576 118.043 34.5387 118.384 34.464C118.736 34.3893 119.013 34.2667 119.216 34.096C119.429 33.9253 119.536 33.696 119.536 33.408C119.536 33.1307 119.445 32.9067 119.264 32.736C119.083 32.5547 118.811 32.4213 118.448 32.336C118.085 32.2507 117.621 32.208 117.056 32.208H116.048V30.752H116.944C117.712 30.752 118.315 30.6773 118.752 30.528C119.189 30.368 119.408 30.0853 119.408 29.68C119.408 29.36 119.259 29.12 118.96 28.96C118.661 28.7893 118.197 28.704 117.568 28.704C117.131 28.704 116.693 28.752 116.256 28.848C115.819 28.9333 115.381 29.0667 114.944 29.248L114.32 27.792C114.8 27.6 115.323 27.4507 115.888 27.344C116.453 27.2267 117.088 27.168 117.792 27.168ZM126.9 27.168C128.02 27.168 128.868 27.4133 129.444 27.904C130.031 28.384 130.324 29.1413 130.324 30.176V36H128.9L128.5 34.8H128.436C128.191 35.1093 127.935 35.3707 127.668 35.584C127.412 35.7867 127.114 35.9307 126.772 36.016C126.442 36.112 126.036 36.16 125.556 36.16C125.044 36.16 124.58 36.064 124.164 35.872C123.759 35.68 123.439 35.3867 123.204 34.992C122.97 34.5867 122.852 34.08 122.852 33.472C122.852 32.576 123.178 31.904 123.828 31.456C124.49 30.9973 125.487 30.7467 126.82 30.704L128.324 30.656V30.224C128.324 29.6693 128.191 29.2747 127.924 29.04C127.658 28.8053 127.284 28.688 126.804 28.688C126.367 28.688 125.946 28.752 125.54 28.88C125.135 29.008 124.74 29.1573 124.356 29.328L123.716 27.92C124.143 27.696 124.628 27.5147 125.172 27.376C125.727 27.2373 126.303 27.168 126.9 27.168ZM127.268 31.936C126.383 31.968 125.77 32.1227 125.428 32.4C125.087 32.6667 124.916 33.0293 124.916 33.488C124.916 33.8933 125.039 34.1867 125.284 34.368C125.53 34.5493 125.844 34.64 126.228 34.64C126.815 34.64 127.311 34.4747 127.716 34.144C128.122 33.8027 128.324 33.3013 128.324 32.64V31.904L127.268 31.936ZM139.587 28.88H136.739V36H134.739V28.88H131.907V27.328H139.587V28.88ZM145.257 30.752C146.1 30.752 146.793 30.848 147.337 31.04C147.892 31.2213 148.303 31.4987 148.569 31.872C148.847 32.2453 148.985 32.7147 148.985 33.28C148.985 33.8347 148.857 34.3147 148.601 34.72C148.345 35.1253 147.945 35.44 147.401 35.664C146.868 35.888 146.164 36 145.289 36H141.241V27.328H143.257V30.752H145.257ZM146.969 33.328C146.969 32.912 146.815 32.624 146.505 32.464C146.196 32.304 145.748 32.224 145.161 32.224H143.257V34.544H145.193C145.716 34.544 146.143 34.4533 146.473 34.272C146.804 34.08 146.969 33.7653 146.969 33.328ZM157.933 27.168C158.573 27.168 159.154 27.2533 159.677 27.424C160.199 27.5947 160.615 27.8507 160.925 28.192C161.234 28.5227 161.389 28.944 161.389 29.456C161.389 29.9787 161.234 30.3947 160.925 30.704C160.626 31.0133 160.215 31.2373 159.693 31.376V31.456C160.055 31.5413 160.381 31.664 160.669 31.824C160.967 31.984 161.202 32.1973 161.373 32.464C161.554 32.7307 161.645 33.0827 161.645 33.52C161.645 34 161.501 34.4427 161.213 34.848C160.925 35.2427 160.482 35.5627 159.885 35.808C159.287 36.0427 158.519 36.16 157.581 36.16C157.133 36.16 156.711 36.1387 156.317 36.096C155.922 36.0533 155.559 35.9947 155.229 35.92C154.909 35.8347 154.626 35.7333 154.381 35.616V33.904C154.743 34.0747 155.181 34.2293 155.693 34.368C156.215 34.5067 156.77 34.576 157.357 34.576C157.794 34.576 158.183 34.5387 158.525 34.464C158.877 34.3893 159.154 34.2667 159.357 34.096C159.57 33.9253 159.677 33.696 159.677 33.408C159.677 33.1307 159.586 32.9067 159.405 32.736C159.223 32.5547 158.951 32.4213 158.589 32.336C158.226 32.2507 157.762 32.208 157.197 32.208H156.189V30.752H157.085C157.853 30.752 158.455 30.6773 158.893 30.528C159.33 30.368 159.549 30.0853 159.549 29.68C159.549 29.36 159.399 29.12 159.101 28.96C158.802 28.7893 158.338 28.704 157.709 28.704C157.271 28.704 156.834 28.752 156.397 28.848C155.959 28.9333 155.522 29.0667 155.085 29.248L154.461 27.792C154.941 27.6 155.463 27.4507 156.029 27.344C156.594 27.2267 157.229 27.168 157.933 27.168ZM171.009 29.568C171.009 30.0587 170.854 30.464 170.545 30.784C170.246 31.104 169.82 31.312 169.265 31.408V31.472C169.852 31.5467 170.332 31.7493 170.705 32.08C171.089 32.4 171.281 32.848 171.281 33.424C171.281 33.7973 171.206 34.144 171.057 34.464C170.918 34.7733 170.7 35.0453 170.401 35.28C170.113 35.504 169.734 35.68 169.265 35.808C168.796 35.936 168.23 36 167.569 36H163.585V27.328H167.553C168.214 27.328 168.801 27.3973 169.313 27.536C169.836 27.6747 170.246 27.9093 170.545 28.24C170.854 28.56 171.009 29.0027 171.009 29.568ZM169.185 33.344C169.185 32.9493 169.03 32.6667 168.721 32.496C168.422 32.3147 167.969 32.224 167.361 32.224H165.601V34.544H167.409C167.953 34.544 168.385 34.4533 168.705 34.272C169.025 34.0907 169.185 33.7813 169.185 33.344ZM168.961 29.744C168.961 29.424 168.838 29.1893 168.593 29.04C168.348 28.8907 167.974 28.816 167.473 28.816H165.601V30.768H167.201C167.777 30.768 168.214 30.688 168.513 30.528C168.812 30.368 168.961 30.1067 168.961 29.744ZM181.079 31.648C181.079 32.3733 180.983 33.0133 180.791 33.568C180.599 34.1227 180.322 34.5973 179.959 34.992C179.607 35.376 179.17 35.6693 178.647 35.872C178.135 36.064 177.564 36.16 176.935 36.16C176.338 36.16 175.788 36.064 175.287 35.872C174.786 35.6693 174.348 35.376 173.975 34.992C173.612 34.5973 173.33 34.1227 173.127 33.568C172.924 33.0133 172.823 32.3733 172.823 31.648C172.823 30.688 172.988 29.8773 173.319 29.216C173.65 28.544 174.124 28.0373 174.743 27.696C175.372 27.344 176.114 27.168 176.967 27.168C177.778 27.168 178.487 27.344 179.095 27.696C179.714 28.0373 180.199 28.544 180.551 29.216C180.903 29.8773 181.079 30.688 181.079 31.648ZM174.887 31.648C174.887 32.256 174.956 32.7787 175.095 33.216C175.244 33.6427 175.468 33.968 175.767 34.192C176.076 34.416 176.471 34.528 176.951 34.528C177.442 34.528 177.836 34.416 178.135 34.192C178.444 33.968 178.668 33.6427 178.807 33.216C178.946 32.7787 179.015 32.256 179.015 31.648C179.015 31.0293 178.94 30.512 178.791 30.096C178.652 29.6693 178.428 29.3493 178.119 29.136C177.82 28.912 177.431 28.8 176.951 28.8C176.226 28.8 175.698 29.0453 175.367 29.536C175.047 30.0267 174.887 30.7307 174.887 31.648ZM185.179 27.328V30.768H189.003V27.328H191.019V36H189.003V32.32H185.179V36H183.163V27.328H185.179ZM201.36 31.648C201.36 32.3733 201.264 33.0133 201.072 33.568C200.88 34.1227 200.603 34.5973 200.24 34.992C199.888 35.376 199.451 35.6693 198.928 35.872C198.416 36.064 197.846 36.16 197.216 36.16C196.619 36.16 196.07 36.064 195.568 35.872C195.067 35.6693 194.63 35.376 194.256 34.992C193.894 34.5973 193.611 34.1227 193.408 33.568C193.206 33.0133 193.104 32.3733 193.104 31.648C193.104 30.688 193.27 29.8773 193.6 29.216C193.931 28.544 194.406 28.0373 195.024 27.696C195.654 27.344 196.395 27.168 197.248 27.168C198.059 27.168 198.768 27.344 199.376 27.696C199.995 28.0373 200.48 28.544 200.832 29.216C201.184 29.8773 201.36 30.688 201.36 31.648ZM195.168 31.648C195.168 32.256 195.238 32.7787 195.376 33.216C195.526 33.6427 195.75 33.968 196.048 34.192C196.358 34.416 196.752 34.528 197.232 34.528C197.723 34.528 198.118 34.416 198.416 34.192C198.726 33.968 198.95 33.6427 199.088 33.216C199.227 32.7787 199.296 32.256 199.296 31.648C199.296 31.0293 199.222 30.512 199.072 30.096C198.934 29.6693 198.71 29.3493 198.4 29.136C198.102 28.912 197.712 28.8 197.232 28.8C196.507 28.8 195.979 29.0453 195.648 29.536C195.328 30.0267 195.168 30.7307 195.168 31.648ZM208.916 27.328H211.14L207.604 31.488L211.444 36H209.14L205.46 31.6V36H203.444V27.328H205.46V31.536L208.916 27.328Z" fill="white"/>
</svg>
