<svg width="116" height="36" viewBox="0 0 116 36" fill="none" xmlns="http://www.w3.org/2000/svg">
<circle cx="17.5" cy="18.1936" r="17.5" fill="#F6E871"/>
<g clip-path="url(#clip0_1_1258)">
<path d="M19.925 19.6936C19.825 19.6936 19.735 19.6586 19.655 19.5886C19.585 19.5086 19.55 19.4186 19.55 19.3186V9.5686C19.55 9.4586 19.585 9.3686 19.655 9.2986C19.735 9.2286 19.825 9.1936 19.925 9.1936H21.905C22.015 9.1936 22.105 9.2286 22.175 9.2986C22.245 9.3686 22.28 9.4586 22.28 9.5686V17.4286H26.825C26.935 17.4286 27.025 17.4686 27.095 17.5486C27.165 17.6186 27.2 17.7086 27.2 17.8186V19.3186C27.2 19.4186 27.165 19.5086 27.095 19.5886C27.025 19.6586 26.935 19.6936 26.825 19.6936H19.925ZM31.952 19.8436C30.712 19.8436 29.757 19.5486 29.087 18.9586C28.417 18.3686 28.052 17.5386 27.992 16.4686C27.982 16.3386 27.977 16.1136 27.977 15.7936C27.977 15.4736 27.982 15.2486 27.992 15.1186C28.052 14.0586 28.427 13.2336 29.117 12.6436C29.807 12.0436 30.752 11.7436 31.952 11.7436C33.162 11.7436 34.112 12.0436 34.802 12.6436C35.492 13.2336 35.867 14.0586 35.927 15.1186C35.937 15.2486 35.942 15.4736 35.942 15.7936C35.942 16.1136 35.937 16.3386 35.927 16.4686C35.867 17.5386 35.502 18.3686 34.832 18.9586C34.162 19.5486 33.202 19.8436 31.952 19.8436ZM31.952 18.0136C32.392 18.0136 32.717 17.8836 32.927 17.6236C33.137 17.3536 33.257 16.9436 33.287 16.3936C33.297 16.2936 33.302 16.0936 33.302 15.7936C33.302 15.4936 33.297 15.2936 33.287 15.1936C33.257 14.6536 33.132 14.2486 32.912 13.9786C32.702 13.7086 32.382 13.5736 31.952 13.5736C31.122 13.5736 30.682 14.1136 30.632 15.1936L30.617 15.7936L30.632 16.3936C30.652 16.9436 30.767 17.3536 30.977 17.6236C31.197 17.8836 31.522 18.0136 31.952 18.0136ZM37.8069 19.6936C37.6969 19.6936 37.6069 19.6586 37.5369 19.5886C37.4669 19.5186 37.4319 19.4286 37.4319 19.3186V12.2686C37.4319 12.1586 37.4669 12.0686 37.5369 11.9986C37.6069 11.9286 37.6969 11.8936 37.8069 11.8936H39.5319C39.6419 11.8936 39.7319 11.9336 39.8019 12.0136C39.8819 12.0836 39.9219 12.1686 39.9219 12.2686V12.8686C40.4719 12.2186 41.2119 11.8936 42.1419 11.8936H42.8019C42.9119 11.8936 43.0019 11.9286 43.0719 11.9986C43.1419 12.0686 43.1769 12.1586 43.1769 12.2686V13.8136C43.1769 13.9136 43.1419 14.0036 43.0719 14.0836C43.0019 14.1536 42.9119 14.1886 42.8019 14.1886H41.3469C40.9369 14.1886 40.6169 14.3036 40.3869 14.5336C40.1669 14.7536 40.0569 15.0686 40.0569 15.4786V19.3186C40.0569 19.4286 40.0169 19.5186 39.9369 19.5886C39.8669 19.6586 39.7769 19.6936 39.6669 19.6936H37.8069ZM47.7702 19.8436C46.5702 19.8436 45.6252 19.5186 44.9352 18.8686C44.2452 18.2186 43.8852 17.2736 43.8552 16.0336V15.5086C43.8952 14.3286 44.2602 13.4086 44.9502 12.7486C45.6502 12.0786 46.5852 11.7436 47.7552 11.7436C48.6052 11.7436 49.3202 11.9186 49.9002 12.2686C50.4902 12.6086 50.9302 13.0786 51.2202 13.6786C51.5202 14.2786 51.6702 14.9686 51.6702 15.7486V16.1086C51.6702 16.2086 51.6352 16.2986 51.5652 16.3786C51.4952 16.4486 51.4052 16.4836 51.2952 16.4836H46.4952V16.5886C46.5152 17.0586 46.6302 17.4386 46.8402 17.7286C47.0502 18.0186 47.3552 18.1636 47.7552 18.1636C48.0052 18.1636 48.2102 18.1136 48.3702 18.0136C48.5302 17.9036 48.6752 17.7736 48.8052 17.6236C48.8952 17.5136 48.9652 17.4486 49.0152 17.4286C49.0752 17.3986 49.1652 17.3836 49.2852 17.3836H51.1452C51.2352 17.3836 51.3102 17.4136 51.3702 17.4736C51.4402 17.5236 51.4752 17.5936 51.4752 17.6836C51.4752 17.9436 51.3252 18.2436 51.0252 18.5836C50.7352 18.9236 50.3102 19.2186 49.7502 19.4686C49.1902 19.7186 48.5302 19.8436 47.7702 19.8436ZM49.0302 14.9986V14.9686C49.0302 14.4786 48.9152 14.0936 48.6852 13.8136C48.4652 13.5236 48.1552 13.3786 47.7552 13.3786C47.3652 13.3786 47.0552 13.5236 46.8252 13.8136C46.6052 14.0936 46.4952 14.4786 46.4952 14.9686V14.9986H49.0302ZM53.4514 19.6936C53.3414 19.6936 53.2514 19.6586 53.1814 19.5886C53.1114 19.5186 53.0764 19.4286 53.0764 19.3186V12.2686C53.0764 12.1586 53.1114 12.0686 53.1814 11.9986C53.2514 11.9286 53.3414 11.8936 53.4514 11.8936H55.0864C55.1964 11.8936 55.2864 11.9286 55.3564 11.9986C55.4264 12.0686 55.4614 12.1586 55.4614 12.2686V12.7786C55.6914 12.4786 55.9964 12.2336 56.3764 12.0436C56.7664 11.8436 57.2014 11.7436 57.6814 11.7436C58.7814 11.7436 59.5414 12.1736 59.9614 13.0336C60.2014 12.6536 60.5364 12.3436 60.9664 12.1036C61.3964 11.8636 61.8564 11.7436 62.3464 11.7436C63.1664 11.7436 63.8314 12.0236 64.3414 12.5836C64.8614 13.1336 65.1214 13.9586 65.1214 15.0586V19.3186C65.1214 19.4186 65.0864 19.5086 65.0164 19.5886C64.9464 19.6586 64.8564 19.6936 64.7464 19.6936H63.0064C62.8964 19.6936 62.8014 19.6586 62.7214 19.5886C62.6514 19.5186 62.6164 19.4286 62.6164 19.3186V15.1636C62.6164 14.6636 62.5114 14.3036 62.3014 14.0836C62.1014 13.8636 61.8264 13.7536 61.4764 13.7536C61.1564 13.7536 60.8914 13.8686 60.6814 14.0986C60.4714 14.3186 60.3664 14.6736 60.3664 15.1636V19.3186C60.3664 19.4186 60.3314 19.5086 60.2614 19.5886C60.1914 19.6586 60.1014 19.6936 59.9914 19.6936H58.2514C58.1414 19.6936 58.0514 19.6586 57.9814 19.5886C57.9114 19.5186 57.8764 19.4286 57.8764 19.3186V15.1636C57.8764 14.6736 57.7664 14.3186 57.5464 14.0986C57.3364 13.8686 57.0664 13.7536 56.7364 13.7536C56.4164 13.7536 56.1464 13.8686 55.9264 14.0986C55.7164 14.3186 55.6114 14.6686 55.6114 15.1486V19.3186C55.6114 19.4186 55.5764 19.5086 55.5064 19.5886C55.4364 19.6586 55.3464 19.6936 55.2364 19.6936H53.4514ZM70.37 10.7686C70.26 10.7686 70.17 10.7336 70.1 10.6636C70.03 10.5936 69.995 10.5036 69.995 10.3936V9.0436C69.995 8.9336 70.03 8.8436 70.1 8.7736C70.17 8.7036 70.26 8.6686 70.37 8.6686H72.17C72.28 8.6686 72.37 8.7036 72.44 8.7736C72.51 8.8436 72.545 8.9336 72.545 9.0436V10.3936C72.545 10.5036 72.51 10.5936 72.44 10.6636C72.37 10.7336 72.28 10.7686 72.17 10.7686H70.37ZM70.385 19.6936C70.275 19.6936 70.185 19.6586 70.115 19.5886C70.045 19.5186 70.01 19.4286 70.01 19.3186V12.2686C70.01 12.1586 70.045 12.0686 70.115 11.9986C70.185 11.9286 70.275 11.8936 70.385 11.8936H72.155C72.265 11.8936 72.355 11.9286 72.425 11.9986C72.495 12.0686 72.53 12.1586 72.53 12.2686V19.3186C72.53 19.4186 72.495 19.5086 72.425 19.5886C72.355 19.6586 72.265 19.6936 72.155 19.6936H70.385ZM74.677 22.5436C74.577 22.5436 74.487 22.5086 74.407 22.4386C74.337 22.3686 74.302 22.2786 74.302 22.1686V12.2686C74.302 12.1586 74.337 12.0686 74.407 11.9986C74.487 11.9286 74.577 11.8936 74.677 11.8936H76.372C76.482 11.8936 76.572 11.9286 76.642 11.9986C76.712 12.0686 76.747 12.1586 76.747 12.2686V12.8086C77.287 12.0986 78.062 11.7436 79.072 11.7436C80.052 11.7436 80.817 12.0486 81.367 12.6586C81.917 13.2686 82.217 14.1286 82.267 15.2386C82.277 15.3686 82.282 15.5536 82.282 15.7936C82.282 16.0336 82.277 16.2186 82.267 16.3486C82.227 17.4286 81.927 18.2836 81.367 18.9136C80.807 19.5336 80.042 19.8436 79.072 19.8436C78.092 19.8436 77.362 19.5086 76.882 18.8386V22.1686C76.882 22.2786 76.847 22.3686 76.777 22.4386C76.707 22.5086 76.617 22.5436 76.507 22.5436H74.677ZM78.262 17.8336C78.732 17.8336 79.067 17.6936 79.267 17.4136C79.477 17.1336 79.597 16.7486 79.627 16.2586C79.647 16.0586 79.657 15.9036 79.657 15.7936C79.657 15.6836 79.647 15.5286 79.627 15.3286C79.597 14.8386 79.477 14.4536 79.267 14.1736C79.067 13.8936 78.732 13.7536 78.262 13.7536C77.802 13.7536 77.462 13.8986 77.242 14.1886C77.032 14.4686 76.912 14.8336 76.882 15.2836L76.867 15.8386L76.882 16.4086C76.902 16.8186 77.027 17.1586 77.257 17.4286C77.487 17.6986 77.822 17.8336 78.262 17.8336ZM86.9749 19.8436C86.1649 19.8436 85.4849 19.7286 84.9349 19.4986C84.3949 19.2686 83.9949 18.9936 83.7349 18.6736C83.4749 18.3536 83.3449 18.0686 83.3449 17.8186C83.3449 17.7186 83.3799 17.6386 83.4499 17.5786C83.5299 17.5086 83.6149 17.4736 83.7049 17.4736H85.4149C85.4749 17.4736 85.5299 17.4986 85.5799 17.5486C85.6999 17.6286 85.7899 17.6936 85.8499 17.7436C86.0699 17.9036 86.2599 18.0236 86.4199 18.1036C86.5899 18.1736 86.7949 18.2086 87.0349 18.2086C87.3249 18.2086 87.5599 18.1536 87.7399 18.0436C87.9299 17.9236 88.0249 17.7586 88.0249 17.5486C88.0249 17.3786 87.9749 17.2436 87.8749 17.1436C87.7849 17.0436 87.6049 16.9486 87.3349 16.8586C87.0649 16.7586 86.6549 16.6536 86.1049 16.5436C85.2749 16.3736 84.6349 16.0986 84.1849 15.7186C83.7449 15.3286 83.5249 14.8086 83.5249 14.1586C83.5249 13.7486 83.6549 13.3586 83.9149 12.9886C84.1749 12.6186 84.5599 12.3186 85.0699 12.0886C85.5899 11.8586 86.2049 11.7436 86.9149 11.7436C87.6249 11.7436 88.2449 11.8536 88.7749 12.0736C89.3049 12.2936 89.7049 12.5636 89.9749 12.8836C90.2549 13.1936 90.3949 13.4786 90.3949 13.7386C90.3949 13.8286 90.3599 13.9086 90.2899 13.9786C90.2299 14.0486 90.1549 14.0836 90.0649 14.0836H88.5049C88.4249 14.0836 88.3499 14.0586 88.2799 14.0086C88.1499 13.9386 88.0349 13.8636 87.9349 13.7836C87.7649 13.6536 87.6049 13.5536 87.4549 13.4836C87.3049 13.4136 87.1199 13.3786 86.8999 13.3786C86.6399 13.3786 86.4299 13.4386 86.2699 13.5586C86.1199 13.6786 86.0449 13.8336 86.0449 14.0236C86.0449 14.1736 86.0849 14.2986 86.1649 14.3986C86.2549 14.4986 86.4349 14.5986 86.7049 14.6986C86.9849 14.7886 87.3949 14.8836 87.9349 14.9836C88.9049 15.1536 89.6099 15.4536 90.0499 15.8836C90.4999 16.3136 90.7249 16.8186 90.7249 17.3986C90.7249 18.1386 90.3949 18.7336 89.7349 19.1836C89.0749 19.6236 88.1549 19.8436 86.9749 19.8436ZM94.9209 19.8436C94.0409 19.8436 93.3309 19.5486 92.7909 18.9586C92.2509 18.3586 91.9809 17.5236 91.9809 16.4536V12.2686C91.9809 12.1586 92.0159 12.0686 92.0859 11.9986C92.1559 11.9286 92.2459 11.8936 92.3559 11.8936H94.2309C94.3409 11.8936 94.4309 11.9286 94.5009 11.9986C94.5809 12.0686 94.6209 12.1586 94.6209 12.2686V16.3636C94.6209 17.3436 95.0559 17.8336 95.9259 17.8336C96.3459 17.8336 96.6759 17.7036 96.9159 17.4436C97.1559 17.1836 97.2759 16.8236 97.2759 16.3636V12.2686C97.2759 12.1586 97.3109 12.0686 97.3809 11.9986C97.4609 11.9286 97.5509 11.8936 97.6509 11.8936H99.5259C99.6359 11.8936 99.7259 11.9286 99.7959 11.9986C99.8659 12.0686 99.9009 12.1586 99.9009 12.2686V19.3186C99.9009 19.4186 99.8659 19.5086 99.7959 19.5886C99.7259 19.6586 99.6359 19.6936 99.5259 19.6936H97.7859C97.6859 19.6936 97.5959 19.6586 97.5159 19.5886C97.4459 19.5086 97.4109 19.4186 97.4109 19.3186V18.7486C96.8909 19.4786 96.0609 19.8436 94.9209 19.8436ZM102.04 19.6936C101.93 19.6936 101.84 19.6586 101.77 19.5886C101.7 19.5186 101.665 19.4286 101.665 19.3186V12.2686C101.665 12.1586 101.7 12.0686 101.77 11.9986C101.84 11.9286 101.93 11.8936 102.04 11.8936H103.675C103.785 11.8936 103.875 11.9286 103.945 11.9986C104.015 12.0686 104.05 12.1586 104.05 12.2686V12.7786C104.28 12.4786 104.585 12.2336 104.965 12.0436C105.355 11.8436 105.79 11.7436 106.27 11.7436C107.37 11.7436 108.13 12.1736 108.55 13.0336C108.79 12.6536 109.125 12.3436 109.555 12.1036C109.985 11.8636 110.445 11.7436 110.935 11.7436C111.755 11.7436 112.42 12.0236 112.93 12.5836C113.45 13.1336 113.71 13.9586 113.71 15.0586V19.3186C113.71 19.4186 113.675 19.5086 113.605 19.5886C113.535 19.6586 113.445 19.6936 113.335 19.6936H111.595C111.485 19.6936 111.39 19.6586 111.31 19.5886C111.24 19.5186 111.205 19.4286 111.205 19.3186V15.1636C111.205 14.6636 111.1 14.3036 110.89 14.0836C110.69 13.8636 110.415 13.7536 110.065 13.7536C109.745 13.7536 109.48 13.8686 109.27 14.0986C109.06 14.3186 108.955 14.6736 108.955 15.1636V19.3186C108.955 19.4186 108.92 19.5086 108.85 19.5886C108.78 19.6586 108.69 19.6936 108.58 19.6936H106.84C106.73 19.6936 106.64 19.6586 106.57 19.5886C106.5 19.5186 106.465 19.4286 106.465 19.3186V15.1636C106.465 14.6736 106.355 14.3186 106.135 14.0986C105.925 13.8686 105.655 13.7536 105.325 13.7536C105.005 13.7536 104.735 13.8686 104.515 14.0986C104.305 14.3186 104.2 14.6686 104.2 15.1486V19.3186C104.2 19.4186 104.165 19.5086 104.095 19.5886C104.025 19.6586 103.935 19.6936 103.825 19.6936H102.04Z" fill="#333333"/>
<line x1="18.75" y1="28.4436" x2="115.25" y2="28.4436" stroke="#333333" stroke-width="0.5" stroke-linecap="round"/>
<rect x="18.5" y="28.6936" width="97" height="2.97237e-06" stroke="white" stroke-width="2.97237e-06"/>
</g>
<defs>
<clipPath id="clip0_1_1258">
<rect width="97" height="23" fill="white" transform="translate(18.5 5.6936)"/>
</clipPath>
</defs>
</svg>
