<svg width="307" height="307" viewBox="0 0 307 307" fill="none" xmlns="http://www.w3.org/2000/svg">
<g filter="url(#filter0_d_2_58)">
<rect x="20.8247" y="15.3665" width="265.762" height="265.762" rx="25" fill="white"/>
</g>
<path d="M45.2472 229.018C45.6872 229.062 46.3472 229.084 47.2492 229.084C49.0092 229.084 50.3952 228.6 51.3852 227.632C52.3752 226.664 52.8812 225.476 52.8812 224.09C52.8812 221.538 51.4292 219.14 46.9192 219.14C46.5452 219.14 45.7752 219.14 44.6312 219.162C43.5092 219.184 42.8052 219.184 42.5412 219.184V234.584H45.2472V229.018ZM47.1832 221.67C49.0752 221.67 50.0212 222.462 50.0212 224.068C50.0212 225.718 48.8552 226.554 47.1612 226.554C46.5892 226.554 45.9512 226.51 45.2472 226.444V221.714C46.2152 221.692 46.8532 221.67 47.1832 221.67ZM57.8159 234.584V227.786C58.4099 227.192 59.1359 226.884 59.9939 226.884C61.4019 226.884 62.1939 227.698 62.1939 229.172V234.584H64.7239V228.842C64.7239 225.85 63.2059 224.508 60.6539 224.508C59.5099 224.508 58.5639 224.86 57.8159 225.586V219.184H55.2859V234.584H57.8159ZM68.0657 227.236C69.0557 226.774 69.9357 226.554 70.6617 226.554C72.0697 226.554 72.5757 227.368 72.5097 229.106C71.9157 228.688 71.1677 228.468 70.2657 228.468C68.1537 228.468 66.6577 229.59 66.6577 231.68C66.6577 233.55 67.9117 234.716 69.7597 234.716C71.1017 234.716 72.0917 234.298 72.6857 233.44V234.584H74.8857V228.556C74.8857 225.828 73.7417 224.442 70.9257 224.442C69.6717 224.442 68.5057 224.75 67.4277 225.388L68.0657 227.236ZM70.5957 232.582C69.7817 232.582 69.1877 232.142 69.1877 231.416C69.1877 230.624 69.8697 230.184 70.7717 230.184C71.4977 230.184 72.0917 230.338 72.5097 230.668V231.68C72.0917 232.274 71.4537 232.582 70.5957 232.582ZM77.1493 227.456C77.1493 230.316 80.5593 230.36 81.9453 231.086C83.0673 231.658 82.2973 232.824 81.1973 232.714C80.6913 232.714 80.1413 232.582 79.5033 232.34C78.8653 232.098 78.4033 231.812 78.1173 231.482L76.8853 233.132C77.1273 233.528 77.6773 233.902 78.4913 234.276C79.3273 234.65 80.1633 234.826 81.0213 234.826C83.4633 234.826 85.0253 233.594 85.0253 231.658C85.0473 229.634 83.0673 228.952 81.5493 228.622C80.5153 228.358 79.6793 228.006 79.6793 227.412C79.6793 226.95 80.1853 226.554 80.9113 226.554C81.9013 226.554 82.7813 226.862 83.5953 227.5L84.5413 225.696C83.6393 224.86 82.3853 224.442 80.7793 224.442C78.6673 224.442 77.1493 225.586 77.1493 227.456ZM95.0207 231.812C94.2727 232.406 93.3487 232.714 92.2267 232.714C90.6427 232.714 89.4547 231.878 89.2567 230.404H96.4067C96.5167 230.052 96.5607 229.59 96.5607 229.04C96.5607 227.698 96.0987 226.598 95.1967 225.74C94.2947 224.882 93.1727 224.442 91.8747 224.442C90.2907 224.442 89.0147 224.948 88.0687 225.938C87.1227 226.928 86.6387 228.16 86.6387 229.634C86.6387 231.196 87.1227 232.45 88.0907 233.396C89.0807 234.342 90.3567 234.826 91.9627 234.826C93.5247 234.826 94.7787 234.408 95.7467 233.594L95.0207 231.812ZM91.7647 226.554C93.1727 226.554 94.0527 227.478 94.0307 228.71H89.1687C89.4547 227.28 90.3347 226.554 91.7647 226.554ZM98.5984 231.856C98.5984 233.814 99.3684 234.804 100.93 234.804C101.986 234.804 102.866 234.518 103.548 233.968L103.02 232.032C102.646 232.296 102.316 232.428 101.986 232.428C101.414 232.428 101.128 231.9 101.128 230.822V219.184H98.5984V231.856ZM105.173 231.856C105.173 233.814 105.943 234.804 107.505 234.804C108.561 234.804 109.441 234.518 110.123 233.968L109.595 232.032C109.221 232.296 108.891 232.428 108.561 232.428C107.989 232.428 107.703 231.9 107.703 230.822V219.184H105.173V231.856ZM118.171 224.684V231.262C117.555 232.076 116.807 232.472 115.949 232.472C114.695 232.472 114.057 231.724 114.057 230.206V224.684H111.527V230.734C111.527 233.44 112.957 234.826 115.003 234.826C116.323 234.826 117.379 234.342 118.171 233.374V234.584H120.701V224.684H118.171ZM123.19 227.456C123.19 230.316 126.6 230.36 127.986 231.086C129.108 231.658 128.338 232.824 127.238 232.714C126.732 232.714 126.182 232.582 125.544 232.34C124.906 232.098 124.444 231.812 124.158 231.482L122.926 233.132C123.168 233.528 123.718 233.902 124.532 234.276C125.368 234.65 126.204 234.826 127.062 234.826C129.504 234.826 131.066 233.594 131.066 231.658C131.088 229.634 129.108 228.952 127.59 228.622C126.556 228.358 125.72 228.006 125.72 227.412C125.72 226.95 126.226 226.554 126.952 226.554C127.942 226.554 128.822 226.862 129.636 227.5L130.582 225.696C129.68 224.86 128.426 224.442 126.82 224.442C124.708 224.442 123.19 225.586 123.19 227.456ZM144.514 224.684L142.798 228.886C142.512 229.59 142.27 230.36 142.072 231.174C141.896 230.404 141.654 229.656 141.324 228.93L139.498 224.684H136.484L141.038 234.628H142.908L147.176 224.684H144.514ZM155.929 231.812C155.181 232.406 154.257 232.714 153.135 232.714C151.551 232.714 150.363 231.878 150.165 230.404H157.315C157.425 230.052 157.469 229.59 157.469 229.04C157.469 227.698 157.007 226.598 156.105 225.74C155.203 224.882 154.081 224.442 152.783 224.442C151.199 224.442 149.923 224.948 148.977 225.938C148.031 226.928 147.547 228.16 147.547 229.634C147.547 231.196 148.031 232.45 148.999 233.396C149.989 234.342 151.265 234.826 152.871 234.826C154.433 234.826 155.687 234.408 156.655 233.594L155.929 231.812ZM152.673 226.554C154.081 226.554 154.961 227.478 154.939 228.71H150.077C150.363 227.28 151.243 226.554 152.673 226.554ZM159.507 231.856C159.507 233.814 160.277 234.804 161.839 234.804C162.895 234.804 163.775 234.518 164.457 233.968L163.929 232.032C163.555 232.296 163.225 232.428 162.895 232.428C162.323 232.428 162.037 231.9 162.037 230.822V219.184H159.507V231.856ZM173.273 234.584V227.83C173.911 227.192 174.615 226.884 175.429 226.884C176.903 226.884 177.651 227.654 177.651 229.216V234.584H180.181V228.776C180.181 225.938 178.817 224.508 176.111 224.508C174.945 224.508 173.999 224.904 173.273 225.674V224.684H170.743V234.584H173.273ZM185.657 234.584V224.684H183.127V234.584H185.657ZM182.863 221.12C182.863 222.088 183.545 222.704 184.447 222.704C185.217 222.704 185.899 222.088 185.899 221.12C185.899 220.24 185.217 219.646 184.447 219.646C183.567 219.646 182.863 220.24 182.863 221.12ZM188.854 233.726C189.822 234.342 191.494 234.826 193.056 234.826C194.794 234.826 196.158 234.342 197.17 233.374C198.204 232.406 198.71 231.108 198.71 229.48C198.71 227.984 198.292 226.774 197.434 225.85C196.598 224.904 195.454 224.442 194.002 224.442C192.99 224.442 192.11 224.728 191.384 225.3V219.184H188.854V233.726ZM193.408 226.818C194.904 226.818 196.004 227.83 196.004 229.656C196.004 231.394 194.838 232.472 193.188 232.472C192.506 232.472 191.912 232.296 191.384 231.966V227.764C191.934 227.126 192.594 226.818 193.408 226.818ZM203.437 234.584V227.786C204.031 227.192 204.757 226.884 205.615 226.884C207.023 226.884 207.815 227.698 207.815 229.172V234.584H210.345V228.842C210.345 225.85 208.827 224.508 206.275 224.508C205.131 224.508 204.185 224.86 203.437 225.586V219.184H200.907V234.584H203.437ZM50.9012 258.584V248.684H44.4552V247.672C44.4552 245.978 45.2032 245.318 46.7872 245.318C47.6232 245.318 48.2832 245.692 48.7452 246.44L50.5712 245.01C49.6912 243.624 48.2832 242.942 46.3252 242.942C43.5972 242.942 41.9252 244.438 41.9252 247.452V258.584H44.4552V251.06H48.3712V258.584H50.9012ZM56.0112 258.584V251.83C56.6492 251.192 57.3532 250.884 58.1672 250.884C59.6412 250.884 60.3892 251.654 60.3892 253.216V258.584H62.9192V252.776C62.9192 249.938 61.5552 248.508 58.8492 248.508C57.6832 248.508 56.7372 248.904 56.0112 249.674V248.684H53.4812V258.584H56.0112ZM68.395 258.584V248.684H65.865V258.584H68.395ZM65.601 245.12C65.601 246.088 66.283 246.704 67.185 246.704C67.955 246.704 68.637 246.088 68.637 245.12C68.637 244.24 67.955 243.646 67.185 243.646C66.305 243.646 65.601 244.24 65.601 245.12ZM71.5926 257.726C72.5606 258.342 74.2326 258.826 75.7946 258.826C77.5326 258.826 78.8966 258.342 79.9086 257.374C80.9426 256.406 81.4486 255.108 81.4486 253.48C81.4486 251.984 81.0306 250.774 80.1726 249.85C79.3366 248.904 78.1926 248.442 76.7406 248.442C75.7286 248.442 74.8486 248.728 74.1226 249.3V243.184H71.5926V257.726ZM76.1466 250.818C77.6426 250.818 78.7426 251.83 78.7426 253.656C78.7426 255.394 77.5766 256.472 75.9266 256.472C75.2446 256.472 74.6506 256.296 74.1226 255.966V251.764C74.6726 251.126 75.3326 250.818 76.1466 250.818ZM90.0693 248.684V255.262C89.4533 256.076 88.7053 256.472 87.8473 256.472C86.5933 256.472 85.9553 255.724 85.9553 254.206V248.684H83.4253V254.734C83.4253 257.44 84.8553 258.826 86.9013 258.826C88.2213 258.826 89.2773 258.342 90.0693 257.374V258.584H92.5993V248.684H90.0693ZM95.0887 251.456C95.0887 254.316 98.4987 254.36 99.8847 255.086C101.007 255.658 100.237 256.824 99.1367 256.714C98.6307 256.714 98.0807 256.582 97.4427 256.34C96.8047 256.098 96.3427 255.812 96.0567 255.482L94.8247 257.132C95.0667 257.528 95.6167 257.902 96.4307 258.276C97.2667 258.65 98.1027 258.826 98.9607 258.826C101.403 258.826 102.965 257.594 102.965 255.658C102.987 253.634 101.007 252.952 99.4887 252.622C98.4547 252.358 97.6187 252.006 97.6187 251.412C97.6187 250.95 98.1247 250.554 98.8507 250.554C99.8407 250.554 100.721 250.862 101.535 251.5L102.481 249.696C101.579 248.86 100.325 248.442 98.7187 248.442C96.6067 248.442 95.0887 249.586 95.0887 251.456ZM104.776 256.934C104.776 257.88 105.48 258.694 106.536 258.694C107.438 258.694 108.142 257.88 108.142 256.934C108.142 256.12 107.438 255.306 106.536 255.306C105.48 255.306 104.776 256.12 104.776 256.934Z" fill="#3E3E3F"/>
<defs>
<filter id="filter0_d_2_58" x="0.824707" y="0.366455" width="305.762" height="305.762" filterUnits="userSpaceOnUse" color-interpolation-filters="sRGB">
<feFlood flood-opacity="0" result="BackgroundImageFix"/>
<feColorMatrix in="SourceAlpha" type="matrix" values="0 0 0 0 0 0 0 0 0 0 0 0 0 0 0 0 0 0 127 0" result="hardAlpha"/>
<feOffset dy="5"/>
<feGaussianBlur stdDeviation="10"/>
<feColorMatrix type="matrix" values="0 0 0 0 0 0 0 0 0 0 0 0 0 0 0 0 0 0 0.1 0"/>
<feBlend mode="normal" in2="BackgroundImageFix" result="effect1_dropShadow_2_58"/>
<feBlend mode="normal" in="SourceGraphic" in2="effect1_dropShadow_2_58" result="shape"/>
</filter>
</defs>
</svg>
